<svg xmlns="http://www.w3.org/2000/svg" xmlns:xlink="http://www.w3.org/1999/xlink" version="1.1" id="Layer_1" x="0px" y="0px" style="enable-background:new 0 0 63.7 55.5;" xml:space="preserve" viewBox="18.5 10.2 28.4 35.7">
<style type="text/css">
	.st0{fill:#0A4393;}
</style>
<path class="st0" d="M40.6,29.3c-0.1,0.1-0.2,0.2-0.3,0.2c-0.1,0.1-0.2,0.2-0.3,0.2c-0.2,0.2-0.4,0.3-0.6,0.5l-4.5,9.2L34,34.1  l1.3-2.1c-0.2,0-0.3,0.1-0.5,0.1c-0.4,0.1-0.8,0.1-1.3,0.2c-0.2,0-0.5,0-0.7,0c-0.9,0-1.8-0.1-2.7-0.3l1.3,2.2l-0.8,5.4l-4.8-9.8  c-0.2-0.2-0.4-0.4-0.7-0.6L25,29.3c-6.6,5.7-6.5,15.8-6.5,16.2v0.4h28.4v-0.4C46.4,33.9,41.8,30,40.6,29.3z"/>
<path class="st0" d="M32.9,10.2c-5.9,0-10.6,4.8-10.6,10.6c0,5.9,4.8,10.6,10.6,10.6c5.9,0,10.6-4.8,10.6-10.6  C43.5,15,38.8,10.2,32.9,10.2z"/>
</svg>