<svg xmlns="http://www.w3.org/2000/svg" xmlns:xlink="http://www.w3.org/1999/xlink" version="1.1" id="Layer_1" x="0px" y="0px" style="enable-background:new 0 0 50.4 45.3;" xml:space="preserve" viewBox="6.9 8.5 39.1 27.5">
<style type="text/css">
	.st0{fill-rule:evenodd;clip-rule:evenodd;fill:#0A4393;}
</style>
<path class="st0" d="M25.7,27.3c0,2.7,1,5.3,2.5,7.2H14.5l0,0l0,0h-0.1c-4.1,0-7.5-3.3-7.5-7.3c0-2.8,1.5-5.2,3.7-6.6  c-0.1-0.5-0.2-1-0.2-1.5c0-2.9,2.3-5.2,5.2-5.2c1.2,0,2.3,0.4,3.1,1.1c1.8-3.8,5.7-6.5,10.1-6.5c4.8,0,9,3.1,10.5,7.4  c-0.7-0.1-1.3-0.2-2-0.2C30.9,15.7,25.7,20.9,25.7,27.3z M38.7,27.3V23h-2.9v4.3h-2.9l4.3,5.8l4.3-5.8H38.7z M37.3,36  c-4.8,0-8.7-3.9-8.7-8.7s3.9-8.7,8.7-8.7s8.7,3.9,8.7,8.7C46,32.1,42.1,36,37.3,36z"/>
</svg>