<svg width="997" height="605" viewBox="0 0 997 605" fill="none" xmlns="http://www.w3.org/2000/svg">
<g clip-path="url(#clip0_33_1096)">
<mask id="mask0_33_1096" style="mask-type:luminance" maskUnits="userSpaceOnUse" x="-30299" y="-29674" width="60761" height="60776">
<path d="M17701.7 -29674L-30298.9 -16920.2L-17539.5 31101.7L30461.1 18348L17701.7 -29674Z" fill="white"/>
</mask>
<g mask="url(#mask0_33_1096)">
<path d="M805.494 330.131L805.665 330.478L444.893 506.433C424.908 516.214 404.047 523.875 383.026 529.461C292.716 553.456 199.228 539.228 155.55 489.642C145.434 478.13 138.702 465.484 135.178 452.221C120.031 395.212 164.354 327.108 250.353 285.116L611.105 109.089C631.09 99.3071 651.951 91.646 672.972 86.0607C763.282 62.0653 856.77 76.2938 900.448 125.879C910.564 137.391 917.296 150.037 920.82 163.3C935.967 220.31 891.644 288.413 805.645 330.405L805.494 330.131L805.323 329.784C891.195 287.905 935.099 219.991 920.107 163.568C916.622 150.452 909.929 137.952 899.906 126.494C856.544 77.2166 763.35 62.9103 673.186 86.8668C652.239 92.4326 631.45 100.074 611.446 109.783L250.675 285.737C164.803 327.616 120.9 395.53 135.891 451.953C139.376 465.07 146.069 477.569 156.093 489.027C199.454 538.305 292.648 552.611 382.812 528.655C403.759 523.089 424.548 515.447 444.552 505.739L805.397 329.765L805.494 330.131Z" fill="url(#paint0_linear_33_1096)"/>
</g>
<mask id="mask1_33_1096" style="mask-type:luminance" maskUnits="userSpaceOnUse" x="-30299" y="-29674" width="60761" height="60776">
<path d="M17701.7 -29674L-30298.9 -16920.2L-17539.5 31101.7L30461.1 18348L17701.7 -29674Z" fill="white"/>
</mask>
<g mask="url(#mask1_33_1096)">
<path d="M731.72 336.396L731.89 336.743L404.736 499.921C386.597 508.977 367.694 516.04 348.577 521.119C266.47 542.935 180.975 528.387 140.581 480.832C131.206 469.75 124.943 457.686 121.594 445.082C107.167 390.784 146.878 326.573 224.908 287.64L552.042 124.389C570.181 115.333 589.085 108.271 608.201 103.191C690.308 81.3757 775.803 95.9233 816.198 143.479C825.572 154.56 831.836 166.624 835.184 179.228C849.612 233.526 809.9 297.737 731.871 336.67L731.72 336.396L731.549 336.049C809.432 297.156 848.743 233.208 834.452 179.423C831.123 166.892 824.898 154.974 815.616 143.947C775.485 96.7923 690.283 82.1669 608.342 104.017C589.299 109.077 570.395 116.139 552.31 125.102L225.176 288.354C147.366 327.228 108.055 391.176 122.326 444.888C125.656 457.418 131.88 469.336 141.142 480.29C181.22 527.537 266.403 542.09 348.363 520.313C367.406 515.253 386.31 508.191 404.395 499.228L731.549 336.049L731.72 336.396Z" fill="url(#paint1_linear_33_1096)"/>
</g>
<mask id="mask2_33_1096" style="mask-type:luminance" maskUnits="userSpaceOnUse" x="-30299" y="-29674" width="60761" height="60776">
<path d="M17701.7 -29674L-30298.9 -16920.2L-17539.5 31101.7L30461.1 18348L17701.7 -29674Z" fill="white"/>
</mask>
<g mask="url(#mask2_33_1096)">
<path d="M664.475 341.554L664.646 341.901L368.091 493.341C351.652 501.709 334.487 508.231 317.128 512.844C242.419 532.694 164.329 517.983 127.033 472.35C118.328 461.719 112.532 450.236 109.339 438.219C95.613 386.558 131.113 325.977 201.886 289.835L498.275 138.361C514.714 129.992 531.879 123.47 549.238 118.858C623.947 99.0079 702.036 113.719 739.332 159.352C748.038 169.983 753.834 181.466 757.027 193.483C770.753 245.143 735.252 305.725 664.48 341.867L664.475 341.554L664.305 341.207C734.857 305.124 770.05 244.859 756.46 193.712C753.287 181.768 747.511 170.359 738.844 159.874C701.792 114.568 623.995 99.7796 549.525 119.645C532.24 124.238 515.055 130.686 498.709 139.109L202.154 290.548C131.601 326.631 96.4085 386.896 109.998 438.043C113.152 449.914 118.948 461.397 127.541 471.901C164.594 517.207 242.39 531.995 316.86 512.13C334.145 507.538 351.33 501.089 367.676 492.666L664.231 341.227L664.475 341.554Z" fill="url(#paint2_linear_33_1096)"/>
</g>
<mask id="mask3_33_1096" style="mask-type:luminance" maskUnits="userSpaceOnUse" x="-30299" y="-29674" width="60761" height="60776">
<path d="M17701.7 -29674L-30298.9 -16920.2L-17539.5 31101.7L30461.1 18348L17701.7 -29674Z" fill="white"/>
</mask>
<g mask="url(#mask3_33_1096)">
<path d="M603.252 345.74L603.422 346.087L334.576 486.713C319.636 494.526 304.044 500.474 288.223 504.677C220.325 522.717 148.944 507.872 114.361 464.185C106.324 454.004 100.904 443.049 97.8662 431.618C84.7826 382.376 116.492 325.233 180.667 291.707L449.513 151.082C464.453 143.269 480.046 137.321 495.867 133.118C563.764 115.077 635.145 129.923 669.729 173.61C677.766 183.791 683.205 194.819 686.243 206.25C699.307 255.419 667.597 312.562 603.442 346.161L603.252 345.74L603.081 345.393C667.037 311.926 698.438 255.101 685.491 206.372C682.473 195.014 677.072 184.132 669.055 174.024C634.808 130.719 563.666 115.888 495.988 133.87C480.241 138.054 464.721 143.982 449.854 151.776L181.008 292.401C117.126 325.849 85.6514 382.694 98.6182 431.496C101.636 442.854 107.037 453.736 114.962 463.79C149.228 507.169 220.297 522.019 288.048 504.018C303.795 499.833 319.314 493.906 334.181 486.111L603.028 345.486L603.252 345.74Z" fill="url(#paint3_linear_33_1096)"/>
</g>
<mask id="mask4_33_1096" style="mask-type:luminance" maskUnits="userSpaceOnUse" x="-30299" y="-29674" width="60761" height="60776">
<path d="M17701.7 -29674L-30298.9 -16920.2L-17539.5 31101.7L30461.1 18348L17701.7 -29674Z" fill="white"/>
</mask>
<g mask="url(#mask4_33_1096)">
<path d="M547.453 349.112L547.624 349.459L303.981 480.172C290.467 487.449 276.319 492.934 261.963 496.749C200.219 513.154 134.959 498.329 102.957 456.389C95.5151 446.677 90.4511 436.177 87.5501 425.259C75.0895 378.361 103.428 324.468 161.552 293.256L405.195 162.544C418.709 155.266 432.856 149.781 447.212 145.967C508.957 129.561 574.217 144.386 606.219 186.326C613.661 196.038 618.725 206.538 621.626 217.457C634.067 264.281 605.748 318.247 547.624 349.459L547.453 349.112L547.282 348.766C605.206 317.685 633.291 264.016 620.966 217.632C618.104 206.86 613.06 196.433 605.71 186.775C573.879 145.182 508.932 130.352 447.407 146.699C433.124 150.494 418.977 155.979 405.536 163.237L161.893 293.95C103.969 325.03 75.8655 378.626 88.2093 425.083C91.0713 435.855 96.1159 446.282 103.465 455.94C135.131 497.499 200.17 512.383 261.696 496.035C275.978 492.24 290.125 486.756 303.566 479.497L547.209 348.785L547.453 349.112Z" fill="url(#paint4_linear_33_1096)"/>
</g>
<mask id="mask5_33_1096" style="mask-type:luminance" maskUnits="userSpaceOnUse" x="-30299" y="-29674" width="60761" height="60776">
<path d="M17701.7 -29674L-30298.9 -16920.2L-17539.5 31101.7L30461.1 18348L17701.7 -29674Z" fill="white"/>
</mask>
<g mask="url(#mask5_33_1096)">
<path d="M496.536 351.658L496.706 352.005L275.923 473.427C263.669 480.134 250.767 485.288 237.729 488.752C181.551 503.679 121.862 488.865 92.2945 448.709C85.4281 439.394 80.6469 429.367 77.8822 418.962C66.0252 374.336 91.2269 323.395 143.979 294.394L364.763 172.972C377.017 166.264 389.919 161.11 402.956 157.646C459.135 142.72 518.824 157.534 548.391 197.69C555.258 207.005 560.039 217.032 562.803 227.437C574.66 272.062 549.459 323.004 496.706 352.005L496.536 351.658L496.365 351.311C548.844 322.462 573.885 271.798 562.125 227.539C559.399 217.28 554.711 207.307 547.864 198.065C518.54 158.237 459.183 143.492 403.224 158.36C390.187 161.824 377.412 166.866 365.231 173.554L144.448 294.976C91.9686 323.825 67.0014 374.469 78.7611 418.728C81.4869 428.987 86.1754 438.96 93.0223 448.202C122.346 488.03 181.703 502.776 237.662 487.907C250.699 484.443 263.474 479.402 275.655 472.713L496.438 351.291L496.536 351.658Z" fill="url(#paint5_linear_33_1096)"/>
</g>
<mask id="mask6_33_1096" style="mask-type:luminance" maskUnits="userSpaceOnUse" x="-30299" y="-29674" width="60761" height="60776">
<path d="M17701.7 -29674L-30298.9 -16920.2L-17539.5 31101.7L30461.1 18348L17701.7 -29674Z" fill="white"/>
</mask>
<g mask="url(#mask6_33_1096)">
<path d="M450.142 353.551L450.313 353.897L250.324 466.813C239.203 473.063 227.58 477.72 215.714 480.873C164.663 494.437 110.031 479.77 82.5669 441.331C76.2031 432.431 71.7584 422.786 69.1495 412.967C57.8571 370.466 80.3617 322.359 128.089 295.4L328.059 182.411C339.18 176.161 350.803 171.504 362.668 168.351C413.72 154.787 468.351 169.454 495.816 207.893C502.199 216.867 506.698 226.419 509.326 236.311C520.618 278.812 498.114 326.919 450.386 353.878L450.142 353.551L449.972 353.204C497.499 326.376 519.789 278.64 508.594 236.506C505.985 226.687 501.579 217.188 495.234 208.362C468.014 170.25 413.694 155.578 362.863 169.084C351.071 172.217 339.448 176.874 328.4 183.104L128.411 296.02C80.8837 322.848 58.6136 370.657 69.8819 412.772C72.4908 422.591 76.8771 432.016 83.2409 440.916C110.442 478.954 164.761 493.627 215.593 480.121C227.385 476.988 239.008 472.33 250.056 466.1L450.118 353.165L450.142 353.551Z" fill="url(#paint6_linear_33_1096)"/>
</g>
<mask id="mask7_33_1096" style="mask-type:luminance" maskUnits="userSpaceOnUse" x="-30299" y="-29674" width="60761" height="60776">
<path d="M17701.7 -29674L-30298.9 -16920.2L-17539.5 31101.7L30461.1 18348L17701.7 -29674Z" fill="white"/>
</mask>
<g mask="url(#mask7_33_1096)">
<path d="M407.898 354.812L408.069 355.159L226.862 460.26C216.8 466.071 206.184 470.383 195.417 473.243C148.98 485.582 99.0005 471.011 73.4728 434.254C67.592 425.697 63.4495 416.599 60.938 407.146C50.1907 366.698 70.1791 321.22 113.448 296.074L294.748 191.026C304.809 185.215 315.426 180.903 326.193 178.042C372.63 165.704 422.609 180.274 448.137 217.031C454.018 225.589 458.16 234.687 460.672 244.139C471.419 284.588 451.43 330.066 408.162 355.212L407.898 354.812L407.728 354.465C450.816 329.523 470.57 284.343 459.92 244.261C457.447 234.955 453.305 225.857 447.463 217.446C422.252 180.997 372.531 166.515 326.388 178.775C315.694 181.617 305.15 185.908 295.089 191.72L113.882 296.821C70.7938 321.763 51.0205 366.869 61.6704 406.952C64.143 416.258 68.2855 425.356 74.1274 433.767C99.338 470.216 149.059 484.698 195.202 472.437C205.896 469.596 216.44 465.304 226.501 459.493L407.708 354.391L407.898 354.812Z" fill="url(#paint7_linear_33_1096)"/>
</g>
<mask id="mask8_33_1096" style="mask-type:luminance" maskUnits="userSpaceOnUse" x="-30299" y="-29674" width="60761" height="60776">
<path d="M17701.7 -29674L-30298.9 -16920.2L-17539.5 31101.7L30461.1 18348L17701.7 -29674Z" fill="white"/>
</mask>
<g mask="url(#mask8_33_1096)">
<path d="M369.435 355.538L369.606 355.885L205.515 453.693C196.367 459.105 186.776 463.143 176.961 465.751C134.699 476.98 88.9329 462.624 65.303 427.403C59.832 419.207 55.9528 410.51 53.5581 401.497C43.317 362.953 61.0627 319.955 100.259 296.596L264.349 198.788C273.497 193.377 283.088 189.338 292.903 186.73C335.165 175.501 380.931 189.857 404.561 225.078C410.032 233.274 413.911 241.971 416.306 250.984C426.547 289.528 408.802 332.526 369.606 355.885L369.435 355.538L369.264 355.191C408.26 331.964 425.791 289.337 415.647 251.159C413.291 242.293 409.412 233.596 403.96 225.473C380.574 190.579 335.14 176.292 293.171 187.443C283.43 190.032 273.892 193.978 264.817 199.37L100.673 297.271C61.6968 320.571 44.1468 363.125 54.31 401.376C56.6658 410.242 60.5255 418.866 65.977 426.988C89.3631 461.882 134.798 476.17 176.766 465.018C186.508 462.43 196.045 458.484 205.12 453.092L369.211 355.284L369.435 355.538Z" fill="url(#paint8_linear_33_1096)"/>
</g>
<mask id="mask9_33_1096" style="mask-type:luminance" maskUnits="userSpaceOnUse" x="-30299" y="-29674" width="60761" height="60776">
<path d="M17701.7 -29674L-30298.9 -16920.2L-17539.5 31101.7L30461.1 18348L17701.7 -29674Z" fill="white"/>
</mask>
<g mask="url(#mask9_33_1096)">
<path d="M334.308 355.85L334.478 356.197L185.879 447.378C177.59 452.483 168.839 456.142 159.903 458.516C121.45 468.733 79.5837 454.596 57.6857 420.876C52.6244 413.042 48.9159 404.692 46.6574 396.191C36.9031 359.48 52.6257 318.902 88.1492 297.068L236.822 205.867C245.111 200.762 253.862 197.103 262.798 194.729C301.251 184.512 343.117 198.649 365.015 232.369C370.076 240.203 373.785 248.554 376.043 257.054C385.798 293.765 370.094 334.417 334.551 356.177L334.308 355.85L334.137 355.503C369.406 333.894 384.968 293.594 375.311 257.248C373.052 248.748 369.456 240.525 364.414 232.764C342.687 199.391 301.08 185.342 262.993 195.462C254.13 197.816 245.452 201.456 237.237 206.541L88.6174 297.65C53.3675 319.332 37.7867 359.559 47.4631 395.977C49.7021 404.404 53.3179 412.701 58.3597 420.461C80.0139 453.854 121.621 467.903 159.708 457.783C168.571 455.429 177.249 451.789 185.464 446.704L334.064 355.522L334.308 355.85Z" fill="url(#paint9_linear_33_1096)"/>
</g>
<mask id="mask10_33_1096" style="mask-type:luminance" maskUnits="userSpaceOnUse" x="-30299" y="-29674" width="60761" height="60776">
<path d="M17701.7 -29674L-30298.9 -16920.2L-17539.5 31101.7L30461.1 18348L17701.7 -29674Z" fill="white"/>
</mask>
<g mask="url(#mask10_33_1096)">
<path d="M302.302 355.803L302.473 356.15L167.899 441.094C160.45 445.819 152.485 449.19 144.355 451.351C109.417 460.633 70.9929 446.759 50.6609 414.505C46.0094 407.033 42.5642 399.083 40.4031 390.95C31.1161 355.997 44.977 317.561 77.2137 297.228L211.807 212.357C219.256 207.632 227.201 204.187 235.331 202.027C270.269 192.744 308.693 206.619 329.025 238.872C333.75 246.325 337.122 254.294 339.264 262.354C348.551 297.307 334.69 335.744 302.453 356.076L302.302 355.803L302.131 355.456C334.021 335.294 347.814 297.189 338.604 262.529C336.463 254.469 333.13 246.647 328.425 239.267C308.263 207.361 270.244 193.535 235.599 202.74C227.543 204.881 219.651 208.233 212.275 212.938L77.6282 297.902C45.7381 318.064 31.9264 356.095 41.1355 390.755C43.2772 398.816 46.6297 406.711 51.3349 414.09C71.4964 445.997 109.516 459.823 144.16 450.618C152.217 448.477 160.109 445.125 167.484 440.42L302.058 355.475L302.302 355.803Z" fill="#FABC20"/>
</g>
<g clip-path="url(#clip1_33_1096)">
<path d="M368.704 386.664L368.704 302.355L337.645 311.637L337.645 327.281L327.279 327.281L327.014 326.981C326.97 326.908 311.031 308.904 309.421 305.764L309.732 305.609L309.523 305.933C309.549 305.893 309.532 305.919 309.422 305.764L309.732 305.609L309.523 305.933C302.475 301.306 107.512 232.741 107.342 232.618L107.636 231.778L108.522 231.778L108.522 287.199L313.497 353.892L328.283 340.703L340.44 348.325L340.44 380.042L338.667 380.042L338.667 349.312L328.469 342.918L313.916 355.899L106.749 288.493L106.749 230.524L107.929 230.94C107.93 230.94 158.226 248.636 208.699 266.684C233.935 275.708 259.215 284.819 278.278 291.852C297.551 299.106 309.727 303.364 311.007 304.97C312.191 307.437 328.336 325.777 328.341 325.803L327.678 326.393L327.678 325.503L335.872 325.503L335.872 310.311L370.477 299.969L370.477 386.664L368.704 386.664Z" fill="url(#paint10_linear_33_1096)"/>
<path d="M370.061 300.409L389.336 312.585L389.336 326.543L402.054 332.924L409.721 318.939L490.747 355.252L490.621 391.44L410.942 362.176L401.967 349.708L393.527 349.708L393.527 392.399L391.754 392.399L391.754 347.929L402.873 347.929L412.061 360.693L488.857 388.897L488.97 356.403L410.487 321.231L402.787 335.28L387.563 327.642L387.563 313.568L369.116 301.915L370.061 300.409Z" fill="url(#paint11_linear_33_1096)"/>
<path d="M249.439 358.631L249.644 357.765L465.147 408.973L428.303 420.524L214.304 371.47L249.374 357.701L249.644 357.765L249.439 358.631L249.762 359.46L220.31 371.022L428.231 418.683L458.449 409.209L249.236 359.496L249.439 358.631L249.762 359.46L249.439 358.631Z" fill="url(#paint12_linear_33_1096)"/>
<path d="M160.217 250.765L160.217 304.666L158.444 304.666L158.444 250.765" fill="url(#paint13_linear_33_1096)"/>
<path d="M203.522 265.917L203.522 318.683L201.749 318.683L201.749 265.917" fill="url(#paint14_linear_33_1096)"/>
<path d="M238.389 277.925L238.389 329.704L236.616 329.704L236.616 277.925" fill="url(#paint15_linear_33_1096)"/>
<path d="M268.491 289.576L268.491 340.239L266.718 340.239L266.718 289.576" fill="url(#paint16_linear_33_1096)"/>
<path d="M301.319 301.584L301.319 350.574L299.546 350.574L299.546 301.584" fill="url(#paint17_linear_33_1096)"/>
<path d="M417.28 323.027L417.28 363.23L415.507 363.23L415.507 323.027" fill="url(#paint18_linear_33_1096)"/>
<path d="M450.108 338.11L450.108 375.673L448.335 375.673L448.335 338.11" fill="url(#paint19_linear_33_1096)"/>
<path d="M465.483 345.073L465.483 381.387L463.71 381.387L463.71 345.073" fill="url(#paint20_linear_33_1096)"/>
<path d="M478.749 351.411L478.749 386.053L476.976 386.053L476.976 351.411" fill="url(#paint21_linear_33_1096)"/>
</g>
</g>
<defs>
<linearGradient id="paint0_linear_33_1096" x1="125.212" y1="414.805" x2="930.818" y2="200.756" gradientUnits="userSpaceOnUse">
<stop stop-color="#FABC20"/>
<stop offset="1" stop-color="#7AC943"/>
</linearGradient>
<linearGradient id="paint1_linear_33_1096" x1="112.16" y1="409.471" x2="844.631" y2="214.853" gradientUnits="userSpaceOnUse">
<stop stop-color="#FABC20"/>
<stop offset="1" stop-color="#7AC943"/>
</linearGradient>
<linearGradient id="paint2_linear_33_1096" x1="100.228" y1="404.344" x2="766.142" y2="227.411" gradientUnits="userSpaceOnUse">
<stop stop-color="#FABC20"/>
<stop offset="1" stop-color="#7AC943"/>
</linearGradient>
<linearGradient id="paint3_linear_33_1096" x1="89.2999" y1="399.366" x2="694.779" y2="238.49" gradientUnits="userSpaceOnUse">
<stop stop-color="#FABC20"/>
<stop offset="1" stop-color="#7AC943"/>
</linearGradient>
<linearGradient id="paint4_linear_33_1096" x1="79.2488" y1="394.419" x2="629.786" y2="248.141" gradientUnits="userSpaceOnUse">
<stop stop-color="#FABC20"/>
<stop offset="1" stop-color="#7AC943"/>
</linearGradient>
<linearGradient id="paint5_linear_33_1096" x1="70.1464" y1="389.637" x2="570.636" y2="256.657" gradientUnits="userSpaceOnUse">
<stop stop-color="#FABC20"/>
<stop offset="1" stop-color="#7AC943"/>
</linearGradient>
<linearGradient id="paint6_linear_33_1096" x1="61.6482" y1="385.059" x2="516.74" y2="264.141" gradientUnits="userSpaceOnUse">
<stop stop-color="#FABC20"/>
<stop offset="1" stop-color="#7AC943"/>
</linearGradient>
<linearGradient id="paint7_linear_33_1096" x1="53.8955" y1="380.596" x2="467.718" y2="270.644" gradientUnits="userSpaceOnUse">
<stop stop-color="#FABC20"/>
<stop offset="1" stop-color="#7AC943"/>
</linearGradient>
<linearGradient id="paint8_linear_33_1096" x1="46.8498" y1="376.238" x2="423.455" y2="276.174" gradientUnits="userSpaceOnUse">
<stop stop-color="#FABC20"/>
<stop offset="1" stop-color="#7AC943"/>
</linearGradient>
<linearGradient id="paint9_linear_33_1096" x1="40.3027" y1="372.066" x2="382.772" y2="281.072" gradientUnits="userSpaceOnUse">
<stop stop-color="#FABC20"/>
<stop offset="1" stop-color="#7AC943"/>
</linearGradient>
<linearGradient id="paint10_linear_33_1096" x1="106.749" y1="308.594" x2="370.477" y2="308.594" gradientUnits="userSpaceOnUse">
<stop stop-color="#77CC09"/>
<stop offset="1" stop-color="#FABC20"/>
</linearGradient>
<linearGradient id="paint11_linear_33_1096" x1="369.116" y1="346.404" x2="490.747" y2="346.404" gradientUnits="userSpaceOnUse">
<stop stop-color="#77CC09"/>
<stop offset="1" stop-color="#FABC20"/>
</linearGradient>
<linearGradient id="paint12_linear_33_1096" x1="214.304" y1="389.113" x2="465.147" y2="389.113" gradientUnits="userSpaceOnUse">
<stop stop-color="#77CC09"/>
<stop offset="1" stop-color="#FABC20"/>
</linearGradient>
<linearGradient id="paint13_linear_33_1096" x1="158.444" y1="277.715" x2="160.217" y2="277.715" gradientUnits="userSpaceOnUse">
<stop stop-color="#77CC09"/>
<stop offset="1" stop-color="#FABC20"/>
</linearGradient>
<linearGradient id="paint14_linear_33_1096" x1="201.749" y1="292.3" x2="203.522" y2="292.3" gradientUnits="userSpaceOnUse">
<stop stop-color="#77CC09"/>
<stop offset="1" stop-color="#FABC20"/>
</linearGradient>
<linearGradient id="paint15_linear_33_1096" x1="236.616" y1="303.815" x2="238.389" y2="303.815" gradientUnits="userSpaceOnUse">
<stop stop-color="#77CC09"/>
<stop offset="1" stop-color="#FABC20"/>
</linearGradient>
<linearGradient id="paint16_linear_33_1096" x1="266.718" y1="314.907" x2="268.491" y2="314.907" gradientUnits="userSpaceOnUse">
<stop stop-color="#77CC09"/>
<stop offset="1" stop-color="#FABC20"/>
</linearGradient>
<linearGradient id="paint17_linear_33_1096" x1="299.546" y1="326.079" x2="301.319" y2="326.079" gradientUnits="userSpaceOnUse">
<stop stop-color="#77CC09"/>
<stop offset="1" stop-color="#FABC20"/>
</linearGradient>
<linearGradient id="paint18_linear_33_1096" x1="415.507" y1="343.129" x2="417.28" y2="343.129" gradientUnits="userSpaceOnUse">
<stop stop-color="#77CC09"/>
<stop offset="1" stop-color="#FABC20"/>
</linearGradient>
<linearGradient id="paint19_linear_33_1096" x1="448.335" y1="356.892" x2="450.108" y2="356.892" gradientUnits="userSpaceOnUse">
<stop stop-color="#77CC09"/>
<stop offset="1" stop-color="#FABC20"/>
</linearGradient>
<linearGradient id="paint20_linear_33_1096" x1="463.71" y1="363.23" x2="465.483" y2="363.23" gradientUnits="userSpaceOnUse">
<stop stop-color="#77CC09"/>
<stop offset="1" stop-color="#FABC20"/>
</linearGradient>
<linearGradient id="paint21_linear_33_1096" x1="476.976" y1="368.732" x2="478.749" y2="368.732" gradientUnits="userSpaceOnUse">
<stop stop-color="#77CC09"/>
<stop offset="1" stop-color="#FABC20"/>
</linearGradient>
<clipPath id="clip0_33_1096">
<rect width="930.537" height="378.215" fill="white" transform="translate(0.521484 239.183) rotate(-14.8797)"/>
</clipPath>
<clipPath id="clip1_33_1096">
<rect x="8.10059" y="201" width="483" height="220" rx="8" fill="white"/>
</clipPath>
</defs>
</svg>
