<svg xmlns="http://www.w3.org/2000/svg" xmlns:xlink="http://www.w3.org/1999/xlink" version="1.1" id="Layer_1" x="0px" y="0px" style="enable-background:new 0 0 63.7 55.5;" xml:space="preserve" viewBox="10.9 8.5 42.1 40">
<style type="text/css">
	.st0{fill-rule:evenodd;clip-rule:evenodd;fill:#0A4393;}
	.st1{fill:#FFFFFF;}
	.st2{font-family:'MyriadPro-Bold';}
	.st3{font-size:12px;}
</style>
<g>
	<path class="st0" d="M31.7,8.5c5.3,0,9.7,4.3,9.7,9.7c0,0.8-0.1,1.6-0.3,2.4c0.7-0.2,1.4-0.3,2.2-0.3c5.4,0,9.7,4.3,9.7,9.7   c0,5.3-4.3,9.7-9.7,9.7h-2.4l-7.5-12.6c-0.2-0.3-0.4-0.5-0.7-0.7c-0.8-0.4-1.8-0.1-2.2,0.7l-7.5,12.6h-2.4c-5.3,0-9.7-4.3-9.7-9.7   c0-5.4,4.3-9.7,9.7-9.7c0.5,0,1.1,0,1.6,0.1C22.1,19.8,22,19,22,18.2C22,12.9,26.3,8.5,31.7,8.5L31.7,8.5z M34.4,43v5.5h-4.9V43   h-6.2c-0.2,0-0.4-0.2-0.4-0.4c0-0.1,0-0.2,0.1-0.2l8.7-14.6c0.1-0.2,0.3-0.3,0.5-0.2c0.1,0,0.1,0.1,0.2,0.2L41,42.4   c0.1,0.2,0,0.4-0.2,0.5c-0.1,0-0.1,0-0.2,0l0,0H34.4z"/>
	<text transform="matrix(1 0 0 1 25.2597 24.7764)" class="st1 st2 st3">S3</text>
</g>
</svg>