<svg xmlns="http://www.w3.org/2000/svg" xmlns:xlink="http://www.w3.org/1999/xlink" version="1.1" id="Layer_1" x="0px" y="0px" style="enable-background:new 0 0 56.5 44.6;" xml:space="preserve" viewBox="9 6.7 36.7 31.6">
<style type="text/css">
	.st0{fill-rule:evenodd;clip-rule:evenodd;fill:#0A4393;}
</style>
<path class="st0" d="M45.6,34.3l-7.6,4V30l7.6-4.2V34.3z M36.9,38.3l-7.7-4v-8.5l7.6,4.2v8.3H36.9z M27.9,33.7l-8.8,4.6v-9.5  l8.8-4.8V33.7z M17.8,38.3L9,33.7V24l8.8,4.8C17.8,28.8,17.8,38.3,17.8,38.3z M11.7,22.8l6.6,3.5l7.1-3.5l-7.1-3.5L11.7,22.8z   M18.3,27.7l-9.2-4.8l9.2-4.8l9.6,4.8L18.3,27.7z M29.3,21.9l-6.5-3.5v-7.2l6.5,3.6V21.9z M35,10.3l-5.2-2.6l-4.9,2.6l4.9,2.6  L35,10.3z M23,10.3l6.8-3.6l7.1,3.6l-7.1,3.6L23,10.3z M30.3,21.9v-7.1l6.5-3.6v7.2L30.3,21.9z M31.6,24.8l5.8,3.1l6.1-3.1l-6.1-3.1  L31.6,24.8z M37.3,29.1l-8-4.2l8-4.2l8.4,4.2L37.3,29.1z"/>
</svg>