<svg xmlns="http://www.w3.org/2000/svg" xmlns:xlink="http://www.w3.org/1999/xlink" version="1.1" id="Layer_1" x="0px" y="0px" style="enable-background:new 0 0 63.7 55.5;" xml:space="preserve" viewBox="13.6 5.4 36.8 46.1">
<style type="text/css">
	.st0{fill-rule:evenodd;clip-rule:evenodd;fill:#0A4393;}
</style>
<path class="st0" d="M33.6,29.6v1.4h10.1c0.4,0,0.7,0.3,0.7,0.7v11.9c0,0.4-0.3,0.7-0.7,0.7H33.6v2.1c0.3,0.2,0.6,0.5,0.7,0.7h14.5  c0.9,0,1.6,0.7,1.6,1.6l0,0c0,0.9-0.7,1.6-1.6,1.6H34.3c-0.5,0.7-1.4,1.2-2.3,1.2c-1,0-1.8-0.5-2.3-1.2H15.2c-0.9,0-1.6-0.7-1.6-1.6  l0,0c0-0.9,0.7-1.6,1.6-1.6h14.5c0.2-0.3,0.5-0.6,0.8-0.7v-2.1H20.3c-0.4,0-0.7-0.3-0.7-0.7V31.8c0-0.4,0.3-0.7,0.7-0.7h10.1v-1.4  H20.3c-0.4,0-0.7-0.3-0.7-0.7V17.1c0-0.4,0.3-0.7,0.7-0.7h7.9l1.8,2.4c0.2,0.2,0.4,0.4,0.6,0.5c0.7,0.3,1.5,0.1,1.9-0.5l1.8-2.4h9.2  c0.4,0,0.7,0.3,0.7,0.7v11.9c0,0.4-0.3,0.7-0.7,0.7H33.6z M22.3,42.1v-8.8h1v8.8H22.3z M39.8,42.1v-5h1v5H39.8z M37.6,42.1v-8.8h1  v8.8H37.6z M26.6,42.1v-5h1v5H26.6z M24.5,42.1v-8.8h1v8.8H24.5z M28.3,10.1V5.4h6.2v4.7h2.7c0.1,0,0.2,0.1,0.2,0.2c0,0,0,0.1,0,0.1  L31.5,18c0,0.1-0.2,0.1-0.3,0.1c0,0-0.1,0-0.1-0.1l-5.8-7.7c0-0.1,0-0.2,0.1-0.3c0,0,0.1,0,0.1,0l0,0H28.3z M22.3,27.4v-8.8h1v8.8  H22.3z M39.8,27.4v-5h1v5H39.8z M37.6,27.4v-8.8h1v8.8H37.6z M30.6,23c0-0.8,0.6-1.4,1.4-1.4c0.8,0,1.4,0.6,1.4,1.4  c0,0.8-0.6,1.4-1.4,1.4C31.2,24.4,30.6,23.8,30.6,23L30.6,23z M26.6,27.4v-5h1v5H26.6z M24.5,27.4v-8.8h1v8.8H24.5z M30.6,37.7  c0,0.8,0.6,1.4,1.4,1.4c0.8,0,1.4-0.6,1.4-1.4c0-0.8-0.6-1.4-1.4-1.4C31.2,36.3,30.6,36.9,30.6,37.7L30.6,37.7z"/>
</svg>