<svg xmlns="http://www.w3.org/2000/svg" xmlns:xlink="http://www.w3.org/1999/xlink" version="1.1" id="Layer_1" x="0px" y="0px" style="enable-background:new 0 0 81.2 70.1;" xml:space="preserve" viewBox="12.3 15.7 55.9 44.8">
<style type="text/css">
	.st0{fill-rule:evenodd;clip-rule:evenodd;fill:#0A4393;}
</style>
<path class="st0" d="M12.3,44.9h1.4c3.4,1.8,12.5,2.1,23.2,2.1v0.2c0,4.2,1.5,8.1,3.9,11.1c-1.3,0-2.6,0.1-3.9,0.1  c-13.6,0-24.6-2.6-24.6-5.2v-0.1l0,0v-2.8C12.3,50.3,12.3,44.9,12.3,44.9z M12.3,31.4h1.4c3.4,1.8,12.5,3.3,23.2,3.3  c1.8,0,3.5,0,5.1-0.1c-2.4,2.5-4.1,5.6-4.8,9.1h-0.3c-13.6,0-24.6-1.4-24.6-4v-0.1l0,0v-2.8C12.3,36.8,12.3,31.4,12.3,31.4z   M56.3,29.3c-0.5,0-1-0.1-1.5-0.1c-2.6,0-5,0.6-7.2,1.5c-3.2,0.3-6.8,0.5-10.7,0.5c-13.6,0-24.6-2.4-24.6-5v-0.1l0,0v-5h0.1  c0-0.1-0.1-0.1-0.1-0.2c0-2.6,11-5.2,24.6-5.2s24.6,2.6,24.6,5.2c0,0,0,0.1-0.1,0.2h0.1v1.4v2.2v1.4l0,0v0.1  C61.6,27.4,59.6,28.4,56.3,29.3z M61,40.4l-8.3,8.1l-4.1-4l-2.8,2.7l4.1,4l2.8,2.7l2.8-2.7l8.3-8.1L61,40.4z M54.8,60.5  c-7.4,0-13.4-6-13.4-13.4s6-13.4,13.4-13.4s13.4,6,13.4,13.4C68.3,54.5,62.2,60.5,54.8,60.5z"/>
</svg>