<svg width="1441" height="395" viewBox="0 0 1441 395" fill="none" xmlns="http://www.w3.org/2000/svg">
<mask id="mask0_465_28" style="mask-type:alpha" maskUnits="userSpaceOnUse" x="0" y="0" width="1441" height="395">
<rect x="0.5" y="0.71582" width="1440" height="393.831" fill="#5B5BCE"/>
</mask>
<g mask="url(#mask0_465_28)">
<rect x="0.5" y="0.303711" width="1440" height="394.243" fill="#28A263"/>
<g clip-path="url(#clip0_465_28)">
<mask id="mask1_465_28" style="mask-type:alpha" maskUnits="userSpaceOnUse" x="552" y="-3" width="888" height="769">
<path d="M1439.87 358.267L1211.15 -2.53414L552.261 407.663L801.225 765.589L1439.87 358.267Z" fill="#0A4393"/>
</mask>
<g mask="url(#mask1_465_28)">
<path d="M1035.83 110.735L736.16 298.95C693.909 325.487 664.183 367.295 653.521 415.175C642.858 463.056 652.133 513.088 679.306 554.264L679.306 554.265C692.761 574.654 710.204 592.255 730.64 606.063C751.076 619.871 774.105 629.617 798.412 634.742C822.719 639.868 847.828 640.274 872.304 635.937C896.781 631.6 920.147 622.605 941.068 609.465L1240.74 421.249C1282.99 394.712 1312.72 352.905 1323.38 305.024C1334.04 257.144 1324.77 207.112 1297.59 165.935L1297.59 165.935C1284.14 145.546 1266.7 127.945 1246.26 114.136C1225.82 100.328 1202.8 90.5828 1178.49 85.457C1154.18 80.3313 1129.07 79.9253 1104.6 84.2625C1080.12 88.5997 1056.75 97.595 1035.83 110.735V110.735Z" stroke="#77CC09" stroke-width="0.5" stroke-miterlimit="10"/>
<path d="M1033.15 124.85L750.44 302.413C730.704 314.809 713.661 330.872 700.284 349.685C686.907 368.498 677.459 389.693 672.478 412.059C662.419 457.229 671.169 504.429 696.803 543.275C722.438 582.121 762.856 609.431 809.167 619.198C855.478 628.964 903.889 620.386 943.748 595.351L1226.46 417.789C1266.3 392.748 1294.33 353.309 1304.39 308.145C1314.44 262.981 1305.68 215.79 1280.05 176.951C1254.42 138.111 1214.02 110.804 1167.71 101.033C1121.41 91.2631 1073.01 99.83 1033.15 124.85L1033.15 124.85Z" stroke="#77CC09" stroke-width="0.5" stroke-miterlimit="10"/>
<path d="M1030.62 138.166L763.913 305.678C745.293 317.372 729.215 332.526 716.595 350.274C703.976 368.023 695.062 388.018 690.364 409.118C685.665 430.218 685.273 452.01 689.211 473.25C693.149 494.489 701.339 514.761 713.313 532.907L713.312 532.907C737.496 569.554 775.627 595.318 819.316 604.532C863.006 613.745 908.676 605.653 946.28 582.035L1212.99 414.523C1231.61 402.829 1247.68 387.675 1260.3 369.927C1272.92 352.179 1281.84 332.184 1286.54 311.084C1291.23 289.983 1291.63 268.191 1287.69 246.952C1283.75 225.712 1275.56 205.44 1263.59 187.295L1263.59 187.294C1239.4 150.647 1201.27 124.883 1157.58 115.669C1113.89 106.456 1068.22 114.548 1030.62 138.166Z" stroke="#77CC09" stroke-width="0.5" stroke-miterlimit="10"/>
<path d="M1028.24 150.728L776.627 308.758C759.061 319.791 743.893 334.087 731.988 350.83C720.083 367.574 711.674 386.437 707.241 406.343C702.808 426.249 702.438 446.807 706.153 466.845C709.868 486.882 717.594 506.006 728.891 523.125L728.891 523.125C740.188 540.244 754.833 555.022 771.992 566.616C789.151 578.21 808.486 586.392 828.895 590.696C849.303 594.999 870.385 595.34 890.936 591.699C911.487 588.057 931.106 580.505 948.671 569.472L1200.28 411.443C1217.85 400.41 1233.02 386.114 1244.92 369.371C1256.83 352.627 1265.24 333.764 1269.67 313.858C1274.1 293.952 1274.47 273.394 1270.76 253.356C1267.04 233.319 1259.31 214.195 1248.02 197.076L1248.02 197.075C1236.72 179.957 1222.08 165.179 1204.92 153.585C1187.76 141.991 1168.42 133.809 1148.01 129.505C1127.61 125.201 1106.52 124.86 1085.97 128.502C1065.42 132.144 1045.8 139.696 1028.24 150.728Z" stroke="#77CC09" stroke-width="0.5" stroke-miterlimit="10"/>
<path d="M1025.98 162.579L788.612 311.664C772.033 322.068 757.715 335.554 746.476 351.35C735.237 367.147 727.298 384.945 723.111 403.728C718.925 422.51 718.573 441.91 722.076 460.818C725.58 479.727 732.869 497.773 743.529 513.927C754.189 530.081 768.009 544.025 784.202 554.964C800.394 565.903 818.641 573.621 837.9 577.679C857.159 581.736 877.052 582.053 896.444 578.612C915.836 575.17 934.346 568.037 950.917 557.621L1188.29 408.537C1221.75 387.517 1245.3 354.402 1253.74 316.476C1262.19 278.549 1254.84 238.919 1233.32 206.303C1211.8 173.687 1177.86 150.757 1138.98 142.557C1100.09 134.357 1059.45 141.56 1025.98 162.579V162.579Z" stroke="#77CC09" stroke-width="0.5" stroke-miterlimit="10"/>
<path d="M1023.85 173.76L799.92 314.406C768.348 334.236 746.134 365.476 738.167 401.256C730.199 437.035 737.13 474.422 757.435 505.192C777.74 535.961 809.755 557.593 846.438 565.329C883.121 573.065 921.466 566.27 953.039 546.44L1176.97 405.794C1208.54 385.964 1230.76 354.723 1238.72 318.944C1242.67 301.228 1243 282.931 1239.69 265.098C1236.39 247.264 1229.51 230.244 1219.46 215.008C1209.4 199.773 1196.37 186.62 1181.1 176.302C1165.83 165.983 1148.62 158.701 1130.45 154.871C1112.29 151.041 1093.53 150.737 1075.24 153.978C1056.95 157.219 1039.49 163.941 1023.85 173.76Z" stroke="#77CC09" stroke-width="0.5" stroke-miterlimit="10"/>
<path d="M1021.85 184.307L810.594 316.992C780.808 335.699 759.852 365.172 752.336 398.926C744.819 432.68 751.358 467.951 770.513 496.979C789.669 526.007 819.872 546.414 854.478 553.712C889.085 561.01 925.26 554.6 955.045 535.893L1166.3 403.208C1196.09 384.5 1217.04 355.028 1224.56 321.274C1232.08 287.52 1225.54 252.249 1206.38 223.221C1187.23 194.193 1157.02 173.785 1122.42 166.487C1087.81 159.19 1051.64 165.6 1021.85 184.307Z" stroke="#77CC09" stroke-width="0.5" stroke-miterlimit="10"/>
<path d="M1019.96 194.258L820.662 319.432C792.594 337.095 772.856 364.895 765.783 396.723C758.711 428.551 764.883 461.803 782.943 489.172C801.004 516.541 829.475 535.788 862.101 542.683C894.726 549.578 928.836 543.557 956.936 525.943L1156.23 400.768C1170.16 392.037 1182.19 380.716 1191.64 367.452C1201.08 354.188 1207.76 339.241 1211.28 323.467C1214.8 307.692 1215.1 291.398 1212.16 275.517C1209.22 259.636 1203.09 244.478 1194.14 230.911C1185.19 217.343 1173.58 205.632 1159.98 196.446C1146.38 187.261 1131.05 180.781 1114.87 177.377C1098.7 173.973 1081.99 173.712 1065.7 176.608C1049.42 179.505 1033.87 185.502 1019.96 194.258V194.258Z" stroke="#77CC09" stroke-width="0.5" stroke-miterlimit="10"/>
<path d="M1018.18 203.645L830.158 321.734C803.678 338.396 785.055 364.623 778.382 394.65C771.71 424.677 777.532 456.048 794.571 481.869C811.61 507.689 838.471 525.847 869.25 532.351C900.03 538.855 932.21 533.174 958.719 516.556L1146.74 398.467C1159.87 390.227 1171.22 379.546 1180.12 367.033C1189.03 354.52 1195.32 340.421 1198.64 325.542C1201.95 310.663 1202.23 295.294 1199.46 280.315C1196.68 265.336 1190.91 251.04 1182.47 238.243C1174.02 225.446 1163.07 214.4 1150.24 205.735C1137.42 197.07 1122.96 190.956 1107.7 187.743C1092.45 184.53 1076.69 184.281 1061.33 187.009C1045.96 189.738 1031.3 195.391 1018.18 203.645V203.645Z" stroke="#77CC09" stroke-width="0.5" stroke-miterlimit="10"/>
<path d="M1016.49 212.501L839.116 323.906C814.107 339.613 796.512 364.358 790.201 392.699C783.89 421.039 789.38 450.653 805.463 475.026C821.546 499.398 846.905 516.533 875.961 522.66C905.017 528.788 935.391 523.406 960.399 507.699L1137.77 396.294C1150.16 388.517 1160.85 378.439 1169.24 366.635C1177.64 354.832 1183.56 341.534 1186.69 327.501C1189.81 313.468 1190.08 298.975 1187.46 284.85C1184.84 270.724 1179.39 257.242 1171.43 245.174L1171.43 245.174C1163.46 233.106 1153.14 222.688 1141.04 214.515C1128.95 206.342 1115.32 200.573 1100.93 197.539C1086.54 194.506 1071.68 194.265 1057.19 196.832C1042.7 199.4 1028.87 204.724 1016.49 212.501V212.501Z" stroke="#77CC09" stroke-width="0.5" stroke-miterlimit="10"/>
<path d="M1014.9 220.856L847.57 325.955C835.881 333.289 825.787 342.796 817.864 353.932C809.941 365.068 804.343 377.615 801.392 390.856C798.44 404.097 798.192 417.774 800.662 431.104C803.131 444.434 808.27 457.156 815.785 468.544C823.3 479.932 833.043 489.762 844.459 497.474C855.874 505.185 868.737 510.626 882.314 513.487C895.891 516.347 909.916 516.57 923.586 514.143C937.257 511.717 950.306 506.688 961.988 499.344L1129.32 394.246C1152.85 379.4 1169.39 356.063 1175.3 329.358C1181.22 302.653 1176.03 274.759 1160.88 251.799C1145.73 228.838 1121.85 212.684 1094.48 206.883C1067.12 201.082 1038.5 206.107 1014.9 220.856V220.856Z" stroke="#77CC09" stroke-width="0.5" stroke-miterlimit="10"/>
<path d="M1013.41 228.738L855.549 327.888C844.528 334.81 835.011 343.779 827.542 354.284C820.072 364.789 814.796 376.624 812.015 389.113C809.234 401.602 809.002 414.501 811.333 427.073C813.664 439.645 818.511 451.643 825.599 462.384L825.598 462.384C839.913 484.076 862.482 499.325 888.342 504.779C914.202 510.232 941.234 505.442 963.492 491.463L1121.35 392.313C1143.61 378.331 1159.26 356.308 1164.87 331.088C1170.48 305.869 1165.6 279.517 1151.29 257.829C1136.97 236.14 1114.41 220.892 1088.55 215.436C1062.7 209.981 1035.67 214.765 1013.41 228.738V228.738Z" stroke="#77CC09" stroke-width="0.5" stroke-miterlimit="10"/>
<path d="M1012 236.173L863.067 329.711C842.07 342.899 827.297 363.676 821.998 387.471C816.699 411.266 821.309 436.131 834.812 456.595C848.316 477.058 869.608 491.445 894.005 496.59C918.401 501.734 943.903 497.215 964.9 484.027L1113.83 390.49C1124.22 383.96 1133.2 375.498 1140.25 365.587C1147.3 355.677 1152.27 344.512 1154.9 332.729C1157.52 320.947 1157.74 308.779 1155.54 296.919C1153.34 285.058 1148.77 273.739 1142.08 263.606C1135.4 253.474 1126.73 244.727 1116.57 237.864C1106.42 231.002 1094.97 226.159 1082.89 223.611C1070.81 221.064 1058.33 220.862 1046.17 223.018C1034 225.173 1022.39 229.643 1012 236.173L1012 236.173Z" stroke="#77CC09" stroke-width="0.5" stroke-miterlimit="10"/>
</g>
</g>
</g>
<defs>
<clipPath id="clip0_465_28">
<rect width="774.475" height="537.128" fill="white" transform="matrix(0.673179 -0.799644 -0.70785 -0.620472 885.423 871.144)"/>
</clipPath>
</defs>
</svg>
